{
	"asset":{
		"generator":"Khronos glTF Blender I/O v4.0.44",
		"version":"2.0"
	},
	"scene":0,
	"scenes":[
		{
			"name":"Scene",
			"nodes":[
				0,
				1,
				2,
				3,
				4,
				7
			]
		}
	],
	"nodes":[
		{
			"name":"\u0410\u0440\u043c\u0430\u0442\u0443\u0440\u0430",
			"rotation":[
				0,
				0,
				0.5384684205055237,
				0.8426457047462463
			],
			"scale":[
				-0.05698561668395996,
				-0.05698561668395996,
				-0.05698561668395996
			],
			"translation":[
				0.7659584283828735,
				0.13769663870334625,
				0.0751037746667862
			]
		},
		{
			"mesh":0,
			"name":"Cap Cylinder",
			"rotation":[
				0,
				0,
				-0.1824258714914322,
				0.9832196235656738
			],
			"scale":[
				0.5231313705444336,
				0.23042191565036774,
				0.5231313705444336
			],
			"translation":[
				-0.030407309532165527,
				0.10059154033660889,
				0.0015528345247730613
			]
		},
		{
			"mesh":1,
			"name":"Plane",
			"rotation":[
				-0.1824258416891098,
				-0.9832196235656738,
				0,
				7.67654313449384e-08
			],
			"scale":[
				-0.8179913759231567,
				-13.542842864990234,
				-0.8179913759231567
			],
			"translation":[
				0.023661255836486816,
				0.2877964973449707,
				0
			]
		},
		{
			"mesh":2,
			"name":"Button",
			"rotation":[
				0,
				0,
				-0.1824258267879486,
				0.9832196235656738
			],
			"scale":[
				-0.06595584005117416,
				-0.024249721318483353,
				-0.06595584005117416
			],
			"translation":[
				0.07674601674079895,
				0.425927072763443,
				0
			]
		},
		{
			"name":"NurbsPath",
			"rotation":[
				0,
				0,
				-0.182425856590271,
				0.9832196235656738
			],
			"scale":[
				0.4290713369846344,
				0.4290713369846344,
				0.4290713667869568
			],
			"translation":[
				0.6523308157920837,
				0.027423812076449394,
				-0.0037529112305492163
			]
		},
		{
			"mesh":3,
			"name":"Tassels",
			"rotation":[
				0.2948961853981018,
				0.6650665998458862,
				-0.3014879524707794,
				0.6163016557693481
			],
			"scale":[
				54.490875244140625,
				54.490882873535156,
				54.49088668823242
			],
			"translation":[
				-11.033539772033691,
				-21.17106819152832,
				55.209861755371094
			]
		},
		{
			"children":[
				5
			],
			"mesh":4,
			"name":"Rope",
			"rotation":[
				-0.4830620288848877,
				-0.5163823962211609,
				-0.4830625355243683,
				0.5163823962211609
			],
			"scale":[
				-0.22240352630615234,
				-0.22240357100963593,
				-0.22240355610847473
			],
			"translation":[
				6.341558456420898,
				23.090341567993164,
				1.470414638519287
			]
		},
		{
			"children":[
				6
			],
			"name":"\u0410\u0440\u043c\u0430\u0442\u0443\u0440\u0430.001",
			"rotation":[
				0,
				0,
				0.5384684205055237,
				0.8426457047462463
			],
			"scale":[
				-0.05698561668395996,
				-0.05698561668395996,
				-0.05698561668395996
			],
			"translation":[
				0.7659583687782288,
				0.13769663870334625,
				0.0751037746667862
			]
		}
	],
	"materials":[
		{
			"doubleSided":true,
			"name":"White Powder Coating Texture",
			"normalTexture":{
				"index":0,
				"scale":0.10000000149011612
			},
			"pbrMetallicRoughness":{
				"baseColorTexture":{
					"index":1
				},
				"metallicFactor":0,
				"metallicRoughnessTexture":{
					"index":2
				}
			}
		},
		{
			"doubleSided":true,
			"name":"Fabric",
			"normalTexture":{
				"index":3
			},
			"pbrMetallicRoughness":{
				"baseColorTexture":{
					"index":4
				},
				"metallicFactor":0,
				"metallicRoughnessTexture":{
					"index":5
				}
			}
		}
	],
	"meshes":[
		{
			"name":"Cylinder.001",
			"primitives":[
				{
					"attributes":{
						"POSITION":0,
						"NORMAL":1,
						"TEXCOORD_0":2
					},
					"indices":3,
					"material":0
				}
			]
		},
		{
			"name":"\u041c\u0435\u0448",
			"primitives":[
				{
					"attributes":{
						"POSITION":4,
						"NORMAL":5,
						"TEXCOORD_0":6,
						"TEXCOORD_1":7
					},
					"indices":8,
					"material":0
				}
			]
		},
		{
			"name":"Sphere.001",
			"primitives":[
				{
					"attributes":{
						"POSITION":9,
						"NORMAL":10,
						"TEXCOORD_0":11
					},
					"indices":12,
					"material":1
				}
			]
		},
		{
			"name":"TASSELS.001",
			"primitives":[
				{
					"attributes":{
						"POSITION":13,
						"NORMAL":14,
						"TEXCOORD_0":15
					},
					"indices":16,
					"material":1
				}
			]
		},
		{
			"name":"Circle.001",
			"primitives":[
				{
					"attributes":{
						"POSITION":17,
						"NORMAL":18,
						"TEXCOORD_0":19
					},
					"indices":20,
					"material":1
				}
			]
		}
	],
	"textures":[
		{
			"sampler":0,
			"source":0
		},
		{
			"sampler":0,
			"source":1
		},
		{
			"sampler":0,
			"source":2
		},
		{
			"sampler":0,
			"source":3
		},
		{
			"sampler":0,
			"source":4
		},
		{
			"sampler":0,
			"source":5
		}
	],
	"images":[
		{
			"mimeType":"image/png",
			"name":"Normal",
			"uri":"Normal.png"
		},
		{
			"mimeType":"image/png",
			"name":"Diffuse",
			"uri":"Diffuse.png"
		},
		{
			"mimeType":"image/png",
			"name":"Roughness",
			"uri":"Roughness.png"
		},
		{
			"mimeType":"image/jpeg",
			"name":"fabric_111_normal-2K",
			"uri":"fabric_111_normal-2K.jpg"
		},
		{
			"mimeType":"image/jpeg",
			"name":"fabric_111_albedo-2K",
			"uri":"fabric_111_albedo-2K.jpg"
		},
		{
			"mimeType":"image/png",
			"name":"fabric_111_roughness-2K",
			"uri":"fabric_111_roughness-2K.png"
		}
	],
	"accessors":[
		{
			"bufferView":0,
			"componentType":5126,
			"count":328,
			"max":[
				1,
				1,
				1
			],
			"min":[
				-1,
				-1,
				-1
			],
			"type":"VEC3"
		},
		{
			"bufferView":1,
			"componentType":5126,
			"count":328,
			"type":"VEC3"
		},
		{
			"bufferView":2,
			"componentType":5126,
			"count":328,
			"type":"VEC2"
		},
		{
			"bufferView":3,
			"componentType":5123,
			"count":1524,
			"type":"SCALAR"
		},
		{
			"bufferView":4,
			"componentType":5126,
			"count":148770,
			"max":[
				0.9995951652526855,
				-0.0004050926072522998,
				0.9995951652526855
			],
			"min":[
				-0.9995951056480408,
				-0.009594907984137535,
				-0.9995951652526855
			],
			"type":"VEC3"
		},
		{
			"bufferView":5,
			"componentType":5126,
			"count":148770,
			"type":"VEC3"
		},
		{
			"bufferView":6,
			"componentType":5126,
			"count":148770,
			"type":"VEC2"
		},
		{
			"bufferView":7,
			"componentType":5126,
			"count":148770,
			"type":"VEC2"
		},
		{
			"bufferView":8,
			"componentType":5125,
			"count":589824,
			"type":"SCALAR"
		},
		{
			"bufferView":9,
			"componentType":5126,
			"count":8426,
			"max":[
				0.9812958836555481,
				1.8363844156265259,
				0.9812960028648376
			],
			"min":[
				-0.9812955260276794,
				-0.9975767135620117,
				-0.981295645236969
			],
			"type":"VEC3"
		},
		{
			"bufferView":10,
			"componentType":5126,
			"count":8426,
			"type":"VEC3"
		},
		{
			"bufferView":11,
			"componentType":5126,
			"count":8426,
			"type":"VEC2"
		},
		{
			"bufferView":12,
			"componentType":5123,
			"count":12756,
			"type":"SCALAR"
		},
		{
			"bufferView":13,
			"componentType":5126,
			"count":4639,
			"max":[
				0.28829658031463623,
				0.29848408699035645,
				0.32322782278060913
			],
			"min":[
				-0.22381314635276794,
				-0.3841632604598999,
				-0.25042954087257385
			],
			"type":"VEC3"
		},
		{
			"bufferView":14,
			"componentType":5126,
			"count":4639,
			"type":"VEC3"
		},
		{
			"bufferView":15,
			"componentType":5126,
			"count":4639,
			"type":"VEC2"
		},
		{
			"bufferView":16,
			"componentType":5123,
			"count":15603,
			"type":"SCALAR"
		},
		{
			"bufferView":17,
			"componentType":5126,
			"count":4875,
			"max":[
				2.984062671661377,
				37.333866119384766,
				159.75555419921875
			],
			"min":[
				-9.422760009765625,
				-8.51605224609375,
				60.547325134277344
			],
			"type":"VEC3"
		},
		{
			"bufferView":18,
			"componentType":5126,
			"count":4875,
			"type":"VEC3"
		},
		{
			"bufferView":19,
			"componentType":5126,
			"count":4875,
			"type":"VEC2"
		},
		{
			"bufferView":20,
			"componentType":5123,
			"count":13083,
			"type":"SCALAR"
		}
	],
	"bufferViews":[
		{
			"buffer":0,
			"byteLength":3936,
			"byteOffset":0,
			"target":34962
		},
		{
			"buffer":0,
			"byteLength":3936,
			"byteOffset":3936,
			"target":34962
		},
		{
			"buffer":0,
			"byteLength":2624,
			"byteOffset":7872,
			"target":34962
		},
		{
			"buffer":0,
			"byteLength":3048,
			"byteOffset":10496,
			"target":34963
		},
		{
			"buffer":0,
			"byteLength":1785240,
			"byteOffset":13544,
			"target":34962
		},
		{
			"buffer":0,
			"byteLength":1785240,
			"byteOffset":1798784,
			"target":34962
		},
		{
			"buffer":0,
			"byteLength":1190160,
			"byteOffset":3584024,
			"target":34962
		},
		{
			"buffer":0,
			"byteLength":1190160,
			"byteOffset":4774184,
			"target":34962
		},
		{
			"buffer":0,
			"byteLength":2359296,
			"byteOffset":5964344,
			"target":34963
		},
		{
			"buffer":0,
			"byteLength":101112,
			"byteOffset":8323640,
			"target":34962
		},
		{
			"buffer":0,
			"byteLength":101112,
			"byteOffset":8424752,
			"target":34962
		},
		{
			"buffer":0,
			"byteLength":67408,
			"byteOffset":8525864,
			"target":34962
		},
		{
			"buffer":0,
			"byteLength":25512,
			"byteOffset":8593272,
			"target":34963
		},
		{
			"buffer":0,
			"byteLength":55668,
			"byteOffset":8618784,
			"target":34962
		},
		{
			"buffer":0,
			"byteLength":55668,
			"byteOffset":8674452,
			"target":34962
		},
		{
			"buffer":0,
			"byteLength":37112,
			"byteOffset":8730120,
			"target":34962
		},
		{
			"buffer":0,
			"byteLength":31206,
			"byteOffset":8767232,
			"target":34963
		},
		{
			"buffer":0,
			"byteLength":58500,
			"byteOffset":8798440,
			"target":34962
		},
		{
			"buffer":0,
			"byteLength":58500,
			"byteOffset":8856940,
			"target":34962
		},
		{
			"buffer":0,
			"byteLength":39000,
			"byteOffset":8915440,
			"target":34962
		},
		{
			"buffer":0,
			"byteLength":26166,
			"byteOffset":8954440,
			"target":34963
		}
	],
	"samplers":[
		{
			"magFilter":9729,
			"minFilter":9987
		}
	],
	"buffers":[
		{
			"byteLength":8980608,
			"uri":"StudentHat.bin"
		}
	]
}
